<?xml version="1.0" standalone="no"?><!DOCTYPE svg PUBLIC "-//W3C//DTD SVG 1.1//EN" "http://www.w3.org/Graphics/SVG/1.1/DTD/svg11.dtd"><svg t="1763705618479" class="icon" viewBox="0 0 1024 1024" version="1.1" xmlns="http://www.w3.org/2000/svg" p-id="6125" xmlns:xlink="http://www.w3.org/1999/xlink" width="200" height="200"><path d="M939.2128 613.0688c-115.712 62.3616-126.7712-51.2-126.7712-51.2-95.6416-11.0592-166.7072-117.8624-166.7072-117.8624-129.2288 66.7648-57.1392 254.976-1.536 327.2704C715.776 863.8464 663.3472 1013.76 663.3472 1013.76S371.712 990.208 222.8224 803.1232c-111.8208-140.3904-82.944-273.2032-51.0976-360.7552 38.2976-105.2672 90.0096-163.1232 165.5808-224.5632 112.2304-91.4432 319.488-102.912 319.488-102.912 1.3312-7.7824 7.68-16.896 15.872-26.2144-24.9856 0.7168-55.5008 2.7648-90.2144 7.2704-23.6544 4.608-49.8688 7.168-76.3904 14.9504-27.136 5.8368-54.5792 15.2576-82.7392 26.0096-28.0576 10.4448-55.7056 25.3952-83.0464 40.8576-25.9072 18.0224-53.4528 34.7136-75.264 58.4704-24.9856 20.3776-43.2128 46.7968-61.8496 72.192-19.5584 24.8832-29.0816 55.296-43.7248 81.408-10.8544 27.8528-16.896 56.6272-25.088 82.944-7.3728 26.5216-7.2704 53.0432-10.9568 76.9024-3.1744 23.9616-5.5296 45.8752-3.7888 65.536 0.6144 19.5584 1.024 36.7616 1.536 50.7904 0.8192 28.16 1.3312 44.2368 1.3312 44.2368l-3.8912 0.3072s-3.3792-15.7696-7.68-44.1344c-2.048-14.1312-4.7104-31.5392-7.4752-51.4048-4.3008-19.8656-4.4032-42.5984-2.56-67.584 1.4336-17.92 1.6384-37.4784 3.3792-57.344l-46.6944-1.024 47.8208-58.6752-50.2784-7.168 71.7824-55.0912-52.736-16.7936 74.24-40.6528L92.16 293.888l96.9728-31.1296-66.9696-19.0464 108.9536-30.0032-59.8016-27.4432 110.1824-14.336-53.8624-31.1296 134.4512-14.1312c0.6144-0.3072 1.3312-0.6144 1.9456-0.8192l-62.1568-28.16 141.312-11.9808L378.368 52.224l267.264 21.1968c14.4384 0.6144 27.0336 1.7408 38.6048 3.072C718.5408 43.52 772.5056 10.24 772.5056 10.24c-11.1616 11.0592-15.5648 71.2704-15.5648 71.2704C768 61.44 803.6352 41.3696 803.6352 41.3696c-19.968 46.6944 0 146.7392 0 146.7392 57.856 57.9584 122.368 258.048 122.368 258.048l24.576 35.5328c31.0272 44.7488 19.5584 114.688-11.3664 131.3792z" p-id="6126" fill="#2563EB"></path></svg>